<svg xmlns="http://www.w3.org/2000/svg" width="82" height="83" viewBox="0 0 82 83"><g><g><path d="M61.681 36.26H15.94v-5.13H61.68zM36.217 51.653H15.94v-5.13h20.277zM61.681 20.87H15.94v-5.13H61.68zM36.217 67.043H15.94v-5.13h20.277zm28.008 5.452h-5.083v-8.017h-7.62v-5.13h7.62v-7.696h5.083v7.696h7.626v5.13h-7.626zm-2.541 9.94c-11.21 0-20.33-9.207-20.33-20.522 0-11.315 9.12-20.522 20.33-20.522 11.209 0 20.329 9.207 20.329 20.522 0 11.315-9.12 20.522-20.33 20.522zm0-35.913c-8.408 0-15.248 6.904-15.248 15.391s6.84 15.391 15.248 15.391c8.407 0 15.247-6.904 15.247-15.391s-6.84-15.391-15.247-15.391zM46.5 82.435H8.316a7.54 7.54 0 0 1-5.39-2.255 7.685 7.685 0 0 1-2.233-5.44V8.042a7.68 7.68 0 0 1 2.233-5.44A7.54 7.54 0 0 1 8.316.347h60.988a7.54 7.54 0 0 1 5.39 2.254 7.68 7.68 0 0 1 2.234 5.441V41.44a25.321 25.321 0 0 0-5.082-3.021V8.043c0-.686-.263-1.327-.745-1.813a2.51 2.51 0 0 0-1.797-.752H8.316a2.51 2.51 0 0 0-1.796.752 2.554 2.554 0 0 0-.745 1.813V74.74c0 .684.266 1.328.745 1.814a2.52 2.52 0 0 0 1.796.751h33.088a25.744 25.744 0 0 0 5.097 5.13z"/></g></g></svg>