<svg xmlns="http://www.w3.org/2000/svg" width="380" height="384" viewBox="0 0 95 96"><g><g><path d="M90.386 46.017l-4.934-4.99v45.205a8.894 8.894 0 0 1-2.578 6.291 8.693 8.693 0 0 1-6.22 2.607h-58.65a8.693 8.693 0 0 1-6.22-2.607 8.894 8.894 0 0 1-2.578-6.29V41.025l-4.51 4.562-4.15-4.195 36.416-36.83A14.49 14.49 0 0 1 47.329.217c3.918.003 7.6 1.546 10.37 4.346l36.837 37.26zm-34.26 43.181V56.572c0-.76-.286-1.518-.859-2.097a2.907 2.907 0 0 0-2.073-.87h-11.73c-.75 0-1.5.29-2.073.87a2.974 2.974 0 0 0-.86 2.097v32.626zm23.46-54.104L53.55 8.758a8.688 8.688 0 0 0-6.22-2.607c-2.348 0-4.56.927-6.22 2.607L15.07 35.094v51.138c0 .79.307 1.535.86 2.097.555.56 1.291.87 2.073.87h14.663V56.571a8.92 8.92 0 0 1 2.577-6.291 8.718 8.718 0 0 1 6.22-2.607h11.73c2.251 0 4.503.869 6.22 2.607a8.92 8.92 0 0 1 2.578 6.29v32.627h14.662c.782 0 1.518-.31 2.073-.869.553-.562.86-1.306.86-2.097z"/></g></g></svg>