<svg xmlns="http://www.w3.org/2000/svg" width="612" height="604" viewBox="0 0 153 151"><g><g><path fill="#fff" d="M153.023 75.498c0 41.696-34.254 75.498-76.507 75.498-42.253 0-76.507-33.802-76.507-75.498C.009 33.802 34.263 0 76.516 0c42.253 0 76.507 33.802 76.507 75.498zm-4.782 0c0-39.089-32.113-70.78-71.725-70.78-39.611 0-71.726 31.691-71.726 70.78 0 39.09 32.115 70.78 71.726 70.78 39.612 0 71.725-31.69 71.725-70.78zm-37.385 3.217c-6.059 5.98-14.814 7.57-22.388 4.921v-4.958c6.098 2.988 13.511 2.124 19.007-3.3 7.002-6.908 6.538-16.907 0-23.355-6.535-6.448-17.13-6.448-23.668 0a16.36 16.36 0 0 0-4.9 11.679v25.954h-.23c-.522 4.622-2.481 9.113-6.073 12.656-8.403 8.293-22.027 8.293-30.43 0a21.035 21.035 0 0 1 0-30.03c6.058-5.98 14.813-7.57 22.388-4.922v5.085c-6.217-2.921-13.86-1.906-19.008 3.173a16.36 16.36 0 0 0 0 23.356c6.535 6.449 16.665 6.91 23.668 0 2.792-2.754 4.291-6.007 4.79-9.32h.113V61.342h.251c.495-4.617 2.457-9.107 6.053-12.656 8.405-8.292 22.026-8.292 30.432 0a21.036 21.036 0 0 1-.005 30.029z"/></g></g></svg>