<svg xmlns="http://www.w3.org/2000/svg" width="87" height="88" viewBox="0 0 87 88"><g><g><path d="M43.73 66.193c-11.91 0-21.6-9.781-21.6-21.804 0-12.022 9.69-21.804 21.6-21.804 11.91 0 21.6 9.782 21.6 21.804 0 12.023-9.69 21.804-21.6 21.804zm0-38.157c-8.934 0-16.2 7.335-16.2 16.353s7.266 16.354 16.2 16.354c8.932 0 16.2-7.336 16.2-16.354 0-9.018-7.268-16.353-16.2-16.353zm8.028 59.966H35.701l-1.573-9.553a34.61 34.61 0 0 1-7.46-3.127l-7.812 5.636L7.505 69.499l5.582-7.885a35.299 35.299 0 0 1-3.097-7.53L.527 52.492V36.29l9.462-1.592a35.277 35.277 0 0 1 3.098-7.531l-5.582-7.885 11.35-11.457 7.81 5.632a34.653 34.653 0 0 1 7.463-3.128L35.704.78h16.05l1.577 9.549a34.653 34.653 0 0 1 7.462 3.128l7.81-5.634 11.35 11.46-5.581 7.884a35.232 35.232 0 0 1 3.098 7.531l9.462 1.589v16.205l-9.463 1.59a35.283 35.283 0 0 1-3.097 7.532l5.582 7.884-11.351 11.46-7.813-5.636a34.635 34.635 0 0 1-7.459 3.127zm-11.48-5.451h6.903L48.59 74l1.764-.408a29.267 29.267 0 0 0 9.137-3.829l1.533-.973 6.995 5.047 4.88-4.928-4.999-7.06.964-1.548a29.852 29.852 0 0 0 3.793-9.221l.404-1.784 8.47-1.423v-6.969l-8.47-1.421-.403-1.784a29.839 29.839 0 0 0-3.792-9.222l-.964-1.548L72.9 19.87l-4.88-4.928-6.995 5.045-1.533-.972a29.267 29.267 0 0 0-9.138-3.83l-1.764-.408-1.412-8.547h-6.9l-1.412 8.547-1.764.407a29.269 29.269 0 0 0-9.137 3.83l-1.534.973-6.993-5.043-4.881 4.925 4.998 7.061-.964 1.548A29.83 29.83 0 0 0 14.8 37.7l-.403 1.782-8.47 1.426v6.966l8.471 1.426.403 1.782a29.82 29.82 0 0 0 3.793 9.22l.964 1.548-5 7.061 4.882 4.927 6.996-5.047 1.533.973a29.291 29.291 0 0 0 9.135 3.829l1.765.407z"/></g></g></svg>